<?xml version="1.0" encoding="UTF-8" standalone="no"?>
<svg
   xmlns:dc="http://purl.org/dc/elements/1.1/"
   xmlns:cc="http://creativecommons.org/ns#"
   xmlns:rdf="http://www.w3.org/1999/02/22-rdf-syntax-ns#"
   xmlns:svg="http://www.w3.org/2000/svg"
   xmlns="http://www.w3.org/2000/svg"
   xmlns:sodipodi="http://sodipodi.sourceforge.net/DTD/sodipodi-0.dtd"
   xmlns:inkscape="http://www.inkscape.org/namespaces/inkscape"
   inkscape:version="1.0 (4035a4fb49, 2020-05-01)"
   sodipodi:docname="zehitomo.svg"
   id="svg4"
   version="1.1"
   fill="none"
   viewBox="0 0 40 40"
   height="40"
   width="40">
  <metadata
     id="metadata10">
    <rdf:RDF>
      <cc:Work
         rdf:about="">
        <dc:format>image/svg+xml</dc:format>
        <dc:type
           rdf:resource="http://purl.org/dc/dcmitype/StillImage" />
        <dc:title></dc:title>
      </cc:Work>
    </rdf:RDF>
  </metadata>
  <defs
     id="defs8" />
  <sodipodi:namedview
     inkscape:current-layer="svg4"
     inkscape:window-maximized="1"
     inkscape:window-y="828"
     inkscape:window-x="-8"
     inkscape:cy="25.28527"
     inkscape:cx="35.082734"
     inkscape:zoom="11.837838"
     showgrid="false"
     id="namedview6"
     inkscape:window-height="1017"
     inkscape:window-width="1920"
     inkscape:pageshadow="2"
     inkscape:pageopacity="0"
     guidetolerance="10"
     gridtolerance="10"
     objecttolerance="10"
     borderopacity="1"
     bordercolor="#666666"
     pagecolor="#ffffff" />
  <path
     style="stroke-width:1.0011"
     sodipodi:nodetypes="cccsccccccssccscccccsssccccssscs"
     id="path2"
     fill="#32bfdf"
     d="m 8.2371217,14.834 c -1.36e-5,1.358202 1.1002318,2.460944 2.4614153,2.467 0.841852,0 1.573461,-0.42 2.017438,-1.051 0.277611,-0.398 0.443977,-0.885 0.443977,-1.405 v -0.044 l 11.351974,-3.042 0.0441,0.066 -7.682902,7.677 -4.089998,4.082 c -0.229592,-0.105657 -0.478803,-0.162203 -0.73161,-0.166 -0.965123,0 -1.740829,0.785 -1.740829,1.748 0,0.962 0.775706,1.748 1.740829,1.748 0.609341,0 1.141512,-0.31 1.452195,-0.786 l 13.535779,3.23 c 0.05137,2.755244 3.988622,3.176131 4.63338,0.505225 C 32.317629,27.192318 28.620128,25.778272 27.317101,28.208 L 13.78032,24.978 c -0.02293,-0.187686 -0.07536,-0.370595 -0.155342,-0.542 l 4.191221,-4.193 7.649829,-7.643 c 0.276609,0.132 0.598317,0.199 0.931049,0.199 1.985878,0 2.980051,-2.395556 1.575993,-3.7965256 C 26.569008,7.601505 24.16817,8.5934898 24.16817,10.575 V 10.62 L 12.860293,13.65 C 12.426246,12.869527 11.604098,12.383287 10.709561,12.378 9.346771,12.3741 8.239332,13.474204 8.2371217,14.834 Z M 20,0 C 31.042293,0 40,8.96 40,20 40,31.05 31.042293,40 20,40 8.957707,40 0,31.04 0,20 0.0010022,8.95 8.957707,0 20,0 Z"
     clip-rule="evenodd"
     fill-rule="evenodd" />
</svg>
