<?xml version="1.0" encoding="UTF-8" standalone="no"?>
<svg
   xmlns:dc="http://purl.org/dc/elements/1.1/"
   xmlns:cc="http://creativecommons.org/ns#"
   xmlns:rdf="http://www.w3.org/1999/02/22-rdf-syntax-ns#"
   xmlns:svg="http://www.w3.org/2000/svg"
   xmlns="http://www.w3.org/2000/svg"
   xmlns:sodipodi="http://sodipodi.sourceforge.net/DTD/sodipodi-0.dtd"
   xmlns:inkscape="http://www.inkscape.org/namespaces/inkscape"
   inkscape:version="1.0 (4035a4fb49, 2020-05-01)"
   sodipodi:docname="zehitomo.svg"
   id="svg4"
   version="1.1"
   fill="none"
   viewBox="0 0 40 40"
   height="40"
   width="40">
  <metadata
     id="metadata10">
    <rdf:RDF>
      <cc:Work
         rdf:about="">
        <dc:format>image/svg+xml</dc:format>
        <dc:type
           rdf:resource="http://purl.org/dc/dcmitype/StillImage" />
      </cc:Work>
    </rdf:RDF>
  </metadata>
  <defs
     id="defs8" />
  <sodipodi:namedview
     inkscape:current-layer="svg4"
     inkscape:window-maximized="1"
     inkscape:window-y="828"
     inkscape:window-x="-8"
     inkscape:cy="15.218837"
     inkscape:cx="66.137782"
     inkscape:zoom="5.9189189"
     showgrid="false"
     id="namedview6"
     inkscape:window-height="1017"
     inkscape:window-width="1920"
     inkscape:pageshadow="2"
     inkscape:pageopacity="0"
     guidetolerance="10"
     gridtolerance="10"
     objecttolerance="10"
     borderopacity="1"
     bordercolor="#666666"
     pagecolor="#ffffff" />
  <path
     sodipodi:nodetypes="cccsccccccssccscccccsssccccssscs"
     id="path2"
     fill="#32bfdf"
     d="m 8.688,14.834 c -1.35e-5,1.358202 1.0978113,2.460944 2.456,2.467 0.84,0 1.57,-0.42 2.013,-1.051 0.277,-0.398 0.443,-0.885 0.443,-1.405 v -0.044 l 11.327,-3.042 0.044,0.066 -7.666,7.677 -4.081,4.082 c -0.229087,-0.105657 -0.47775,-0.162203 -0.73,-0.166 -0.963,0 -1.737,0.785 -1.737,1.748 0,0.962 0.774,1.748 1.737,1.748 0.608,0 1.139,-0.31 1.449,-0.786 l 13.506,3.23 c 0.05126,2.755244 3.979847,3.176131 4.623187,0.505225 C 32.715527,27.192318 29.026161,25.778272 27.726,28.208 l -13.507,-3.23 c -0.02288,-0.187686 -0.07519,-0.370595 -0.155,-0.542 l 4.182,-4.193 7.633,-7.643 c 0.276,0.132 0.597,0.199 0.929,0.199 1.98151,0 2.973495,-2.395556 1.572526,-3.7965256 C 26.979556,7.601505 24.584,8.5934898 24.584,10.575 v 0.045 l -11.283,3.03 c -0.433092,-0.780473 -1.253431,-1.266713 -2.146,-1.272 -1.3597919,-0.0039 -2.4647945,1.096204 -2.467,2.456 z M 20.425,0 c 11.018,0 19.956,8.96 19.956,20 0,11.05 -8.938,20 -19.956,20 C 9.407,40 0.469,31.04 0.469,20 0.47,8.95 9.407,0 20.425,0 Z"
     clip-rule="evenodd"
     fill-rule="evenodd" />
</svg>
